<?xml version="1.0" standalone="no"?>
<!DOCTYPE svg PUBLIC "-//W3C//DTD SVG 20010904//EN"
 "http://www.w3.org/TR/2001/REC-SVG-20010904/DTD/svg10.dtd">
<svg version="1.0" xmlns="http://www.w3.org/2000/svg"
 width="200.000000pt" height="162.000000pt" viewBox="0 0 200.000000 162.000000"
 preserveAspectRatio="xMidYMid meet">

<g transform="translate(0.000000,162.000000) scale(0.100000,-0.100000)"
fill="#000000" stroke="none">
<path d="M1155 1541 c-45 -5 -61 -10 -63 -23 -3 -14 8 -17 70 -20 40 -2 77 0
83 4 15 13 55 9 55 -5 0 -7 -15 -28 -34 -46 l-34 -33 21 -64 c12 -35 19 -65
16 -67 -2 -2 -112 -34 -244 -72 -132 -37 -245 -70 -251 -72 -9 -3 -37 50 -71
135 -3 8 4 12 21 12 33 0 96 25 96 38 0 17 -30 22 -133 22 -126 0 -147 -5
-147 -35 0 -28 17 -35 80 -35 l48 0 32 -81 33 -81 -39 -39 -39 -38 -44 30
c-143 96 -349 72 -470 -55 -59 -63 -85 -111 -101 -190 -25 -121 12 -240 104
-332 81 -81 148 -108 266 -108 75 -1 93 3 152 31 75 35 133 88 174 159 16 27
31 50 35 52 3 1 4 13 2 26 -10 50 55 46 74 -4 8 -23 8 -30 0 -31 -23 -2 39
-17 74 -18 26 -1 42 6 59 24 22 23 25 41 18 102 -2 15 43 74 167 213 l170 191
14 -29 c13 -28 12 -30 -36 -75 -188 -176 -140 -495 92 -607 183 -89 408 -14
496 165 121 246 -40 527 -311 543 -57 3 -89 -1 -133 -16 l-59 -19 -20 46 c-22
52 -24 67 -13 96 7 19 7 19 -7 2 -13 -17 -16 -11 -41 65 -34 103 -34 126 -4
130 23 3 26 20 11 67 -5 17 -4 22 4 17 7 -4 12 -4 12 -1 0 3 -16 13 -35 21
-35 14 -47 15 -150 5z m150 -331 l13 -36 -174 -204 c-133 -156 -181 -206 -200
-208 -15 -2 -31 1 -36 6 -5 5 3 7 20 4 27 -4 40 8 163 153 74 86 135 162 136
169 4 15 -47 51 -56 39 -3 -5 -64 -78 -136 -162 -71 -84 -132 -160 -135 -168
-4 -8 -33 55 -67 143 -34 88 -60 160 -58 162 8 8 483 141 499 139 12 -1 24
-15 31 -37z m-783 -137 c26 -9 60 -27 75 -39 l28 -23 -100 -101 c-55 -56 -112
-108 -127 -116 -19 -10 -28 -22 -28 -39 0 -28 18 -40 75 -49 l40 -6 -30 15
c-29 14 -27 14 35 8 154 -14 244 -29 247 -39 2 -7 -3 -18 -11 -27 -8 -8 -13
-17 -10 -20 11 -11 -36 -85 -81 -126 -73 -67 -124 -86 -230 -86 -73 0 -99 5
-136 23 -71 35 -122 84 -160 154 -32 58 -34 69 -34 153 0 79 3 97 28 145 46
89 131 161 212 181 56 13 159 10 207 -8z m281 -125 c31 -79 59 -151 62 -160 5
-13 -1 -17 -32 -21 l-38 -4 43 -1 43 -2 -21 -28 c-17 -22 -27 -27 -50 -24 -27
4 -29 7 -29 56 0 83 -48 206 -96 246 -14 12 -13 17 17 47 17 18 35 33 38 33 4
0 32 -64 63 -142z m884 122 c79 -28 141 -83 182 -164 31 -60 35 -75 35 -149 0
-70 -4 -91 -27 -139 -35 -72 -97 -134 -167 -167 -79 -37 -201 -37 -280 0 -70
33 -136 99 -169 169 -36 79 -36 192 1 271 27 58 92 139 112 139 6 0 19 -21 30
-48 21 -54 64 -124 101 -166 14 -16 25 -37 25 -47 0 -32 12 -49 34 -49 27 0
46 18 46 42 0 19 -35 42 -50 33 -14 -9 -96 123 -125 199 l-24 63 47 16 c66 22
161 21 229 -3z m-567 -55 c-6 -7 -8 -19 -6 -26 3 -8 -12 -27 -32 -44 l-36 -30
22 31 c12 17 19 34 15 37 -9 10 27 58 38 51 7 -4 6 -10 -1 -19z m-439 -63 c44
-63 78 -191 59 -221 -5 -10 -40 -7 -145 9 -144 22 -155 25 -155 41 0 6 4 7 10
4 5 -3 7 0 5 8 -6 14 171 197 190 197 6 0 22 -17 36 -38z m263 -238 c10 -4 16
-18 16 -35 0 -22 -6 -30 -25 -35 -43 -11 -73 34 -43 64 13 13 28 15 52 6z"/>
<path d="M548 683 c7 -3 16 -2 19 1 4 3 -2 6 -13 5 -11 0 -14 -3 -6 -6z"/>
<path d="M588 673 c7 -3 16 -2 19 1 4 3 -2 6 -13 5 -11 0 -14 -3 -6 -6z"/>
<path d="M668 653 c7 -3 16 -2 19 1 4 3 -2 6 -13 5 -11 0 -14 -3 -6 -6z"/>
<path d="M498 783 c18 -2 45 -2 60 0 15 2 0 4 -33 4 -33 0 -45 -2 -27 -4z"/>
<path d="M663 773 c15 -2 37 -2 50 0 12 2 0 4 -28 4 -27 0 -38 -2 -22 -4z"/>
<path d="M907 703 c-10 -9 -8 -41 2 -47 16 -10 41 5 41 24 0 10 -7 21 -16 24
-19 7 -19 7 -27 -1z"/>
<path d="M1350 1506 c0 -2 8 -10 18 -17 15 -13 16 -12 3 4 -13 16 -21 21 -21
13z"/>
<path d="M1386 1457 c3 -10 9 -15 12 -12 3 3 0 11 -7 18 -10 9 -11 8 -5 -6z"/>
<path d="M1403 1390 c0 -25 2 -35 4 -22 2 12 2 32 0 45 -2 12 -4 2 -4 -23z"/>
<path d="M298 210 l-26 -71 51 3 c52 3 82 28 33 28 -16 0 -26 6 -26 15 0 10
10 15 29 15 16 0 31 6 35 15 4 11 -2 15 -25 15 -18 0 -28 4 -24 10 3 6 19 10
36 10 19 0 29 5 29 15 0 11 -12 15 -44 15 l-43 0 -25 -70z"/>
<path d="M435 268 c-3 -7 -14 -39 -25 -71 l-19 -58 46 3 c49 3 75 28 29 28
-31 0 -31 -3 -6 60 l20 50 -20 0 c-12 0 -23 -6 -25 -12z"/>
<path d="M528 210 l-26 -71 51 3 c52 3 82 28 33 28 -16 0 -26 6 -26 15 0 10
10 15 29 15 16 0 31 6 35 15 4 11 -2 15 -25 15 -18 0 -28 4 -24 10 3 6 19 10
36 10 19 0 29 5 29 15 0 11 -12 15 -44 15 l-43 0 -25 -70z"/>
<path d="M656 265 c-3 -9 0 -15 9 -15 19 0 19 -12 0 -57 -19 -46 -19 -53 3
-53 13 0 23 15 36 55 13 42 22 55 37 55 10 0 19 7 19 15 0 11 -12 15 -49 15
-34 0 -51 -4 -55 -15z"/>
<path d="M776 268 c-2 -7 -13 -39 -25 -70 -20 -57 -20 -58 -1 -58 13 0 22 9
26 25 8 32 22 32 30 0 4 -16 13 -25 26 -25 17 0 19 4 14 26 -5 20 -2 32 14 46
12 11 20 29 18 41 -3 19 -11 22 -51 25 -32 2 -48 -1 -51 -10z m62 -30 c-7 -19
-38 -22 -38 -4 0 10 9 16 21 16 12 0 19 -5 17 -12z"/>
<path d="M905 268 c-3 -7 -14 -39 -25 -71 l-19 -58 21 3 c16 2 26 18 44 71 22
66 22 67 3 67 -11 0 -22 -6 -24 -12z"/>
<path d="M969 250 c-53 -53 -26 -127 38 -104 19 6 29 18 31 34 3 20 1 23 -9
13 -20 -20 -49 -16 -49 6 0 28 28 47 50 34 13 -9 20 -9 29 0 16 16 14 34 -5
41 -32 12 -56 5 -85 -24z"/>
<path d="M1185 268 c-3 -7 -14 -39 -24 -70 l-20 -58 48 0 c54 0 74 16 85 65
16 68 15 70 -37 73 -32 2 -49 -1 -52 -10z m60 -28 c-3 -5 -13 -10 -21 -10 -8
0 -12 5 -9 10 3 6 13 10 21 10 8 0 12 -4 9 -10z m-17 -52 c-3 -7 -12 -14 -21
-16 -12 -2 -15 1 -11 12 7 19 38 22 32 4z"/>
<path d="M1315 268 c-3 -7 -14 -39 -25 -71 l-19 -58 21 3 c16 2 26 18 44 71
22 66 22 67 3 67 -11 0 -22 -6 -24 -12z"/>
<path d="M1358 210 l-25 -70 22 0 c17 0 24 7 29 30 3 17 10 30 16 30 5 0 10
-13 10 -30 0 -25 4 -30 25 -30 24 0 25 2 19 35 -5 29 -1 40 21 67 25 30 26 33
10 37 -11 2 -26 -7 -38 -23 -23 -31 -54 -37 -37 -7 14 27 13 31 -9 31 -14 0
-24 -17 -43 -70z"/>
<path d="M1498 210 l-26 -71 51 3 c52 3 82 28 33 28 -16 0 -26 6 -26 15 0 10
10 15 29 15 16 0 31 6 35 15 4 11 -2 15 -25 15 -18 0 -28 4 -24 10 3 6 19 10
36 10 19 0 29 5 29 15 0 11 -12 15 -44 15 l-43 0 -25 -70z"/>
<path d="M1653 268 c-28 -13 -36 -34 -23 -58 8 -16 6 -22 -10 -32 -11 -7 -20
-19 -20 -26 0 -18 38 -6 64 19 17 16 18 22 8 44 -11 24 -10 27 7 32 12 3 17
11 14 19 -6 16 -10 16 -40 2z"/>
<path d="M1077 213 c-15 -14 -6 -23 22 -23 16 0 34 7 41 15 11 13 7 15 -22 15
-19 0 -38 -3 -41 -7z"/>
</g>
</svg>
